<mxfile host="app.diagrams.net" modified="2023-11-11T16:35:25.163Z" agent="Mozilla/5.0 (Windows NT 10.0; Win64; x64) AppleWebKit/537.36 (KHTML, like Gecko) Chrome/119.0.0.0 Safari/537.36" etag="QglHXNaFWPh-QDP2L-si" version="22.1.0" type="device">
  <diagram name="Page-1" id="9CCO7-W3ZapYjYBGZj62">
    <mxGraphModel dx="1195" dy="630" grid="1" gridSize="10" guides="1" tooltips="1" connect="1" arrows="1" fold="1" page="1" pageScale="1" pageWidth="2339" pageHeight="3300" math="0" shadow="0">
      <root>
        <mxCell id="0" />
        <mxCell id="1" parent="0" />
        <mxCell id="Cvbp47HpB8NzxSIA9XSN-1" value="Pizza" style="rounded=0;whiteSpace=wrap;html=1;" vertex="1" parent="1">
          <mxGeometry x="290" y="190" width="120" height="60" as="geometry" />
        </mxCell>
        <mxCell id="Cvbp47HpB8NzxSIA9XSN-3" style="edgeStyle=orthogonalEdgeStyle;rounded=0;orthogonalLoop=1;jettySize=auto;html=1;exitX=0;exitY=0.5;exitDx=0;exitDy=0;entryX=1;entryY=0.5;entryDx=0;entryDy=0;" edge="1" parent="1" source="Cvbp47HpB8NzxSIA9XSN-2" target="Cvbp47HpB8NzxSIA9XSN-1">
          <mxGeometry relative="1" as="geometry" />
        </mxCell>
        <mxCell id="Cvbp47HpB8NzxSIA9XSN-2" value="Plain Pizza" style="rounded=0;whiteSpace=wrap;html=1;" vertex="1" parent="1">
          <mxGeometry x="500" y="190" width="120" height="60" as="geometry" />
        </mxCell>
        <mxCell id="Cvbp47HpB8NzxSIA9XSN-5" style="edgeStyle=orthogonalEdgeStyle;rounded=0;orthogonalLoop=1;jettySize=auto;html=1;entryX=0.5;entryY=1;entryDx=0;entryDy=0;" edge="1" parent="1" source="Cvbp47HpB8NzxSIA9XSN-4" target="Cvbp47HpB8NzxSIA9XSN-1">
          <mxGeometry relative="1" as="geometry">
            <mxPoint x="560" y="260" as="targetPoint" />
          </mxGeometry>
        </mxCell>
        <mxCell id="Cvbp47HpB8NzxSIA9XSN-7" style="edgeStyle=orthogonalEdgeStyle;rounded=0;orthogonalLoop=1;jettySize=auto;html=1;exitX=0.5;exitY=0;exitDx=0;exitDy=0;entryX=0.25;entryY=1;entryDx=0;entryDy=0;" edge="1" parent="1" source="Cvbp47HpB8NzxSIA9XSN-6" target="Cvbp47HpB8NzxSIA9XSN-4">
          <mxGeometry relative="1" as="geometry" />
        </mxCell>
        <mxCell id="Cvbp47HpB8NzxSIA9XSN-6" value="Pizza With Mushroom" style="rounded=0;whiteSpace=wrap;html=1;" vertex="1" parent="1">
          <mxGeometry x="265" y="460" width="170" height="60" as="geometry" />
        </mxCell>
        <mxCell id="Cvbp47HpB8NzxSIA9XSN-8" value="Pizza With Onion" style="rounded=0;whiteSpace=wrap;html=1;" vertex="1" parent="1">
          <mxGeometry x="490" y="460" width="170" height="60" as="geometry" />
        </mxCell>
        <mxCell id="Cvbp47HpB8NzxSIA9XSN-9" style="edgeStyle=orthogonalEdgeStyle;rounded=0;orthogonalLoop=1;jettySize=auto;html=1;entryX=0.632;entryY=1.028;entryDx=0;entryDy=0;entryPerimeter=0;" edge="1" parent="1" source="Cvbp47HpB8NzxSIA9XSN-8" target="Cvbp47HpB8NzxSIA9XSN-4">
          <mxGeometry relative="1" as="geometry" />
        </mxCell>
        <mxCell id="Cvbp47HpB8NzxSIA9XSN-10" value="Pizza with Pepperoni" style="rounded=0;whiteSpace=wrap;html=1;" vertex="1" parent="1">
          <mxGeometry x="700" y="460" width="170" height="60" as="geometry" />
        </mxCell>
        <mxCell id="Cvbp47HpB8NzxSIA9XSN-11" style="edgeStyle=orthogonalEdgeStyle;rounded=0;orthogonalLoop=1;jettySize=auto;html=1;exitX=0.5;exitY=0;exitDx=0;exitDy=0;entryX=0.889;entryY=1.028;entryDx=0;entryDy=0;entryPerimeter=0;" edge="1" parent="1" source="Cvbp47HpB8NzxSIA9XSN-10" target="Cvbp47HpB8NzxSIA9XSN-4">
          <mxGeometry relative="1" as="geometry" />
        </mxCell>
        <mxCell id="Cvbp47HpB8NzxSIA9XSN-13" value="Decorator Design Pattern" style="swimlane;whiteSpace=wrap;html=1;" vertex="1" parent="1">
          <mxGeometry x="200" y="140" width="760" height="430" as="geometry" />
        </mxCell>
        <mxCell id="Cvbp47HpB8NzxSIA9XSN-4" value="PizzaDecorator" style="rounded=0;whiteSpace=wrap;html=1;" vertex="1" parent="Cvbp47HpB8NzxSIA9XSN-13">
          <mxGeometry x="300" y="150" width="120" height="60" as="geometry" />
        </mxCell>
      </root>
    </mxGraphModel>
  </diagram>
</mxfile>
